<svg xmlns="http://www.w3.org/2000/svg" width="12.765" height="122.253" viewBox="0 0 12.765 122.253">
  <defs>
    <style>
      .cls-1 {
        fill: #d23431;
      }
    </style>
  </defs>
  <g id="curve_lines" data-name="curve lines" transform="translate(-1272.445 -479.958)">
    <g id="Squiggle:_Black_short" data-name="Squiggle: Black, short" transform="translate(1285.211 545.349) rotate(90)">
      <path id="Path_765" data-name="Path 765" class="cls-1" d="M1.416,56.862H0c0-2.372,1.452-3.541,2.726-4.6,1.2-.991,2.231-1.806,2.231-3.505S3.93,46.2,2.726,45.249C1.452,44.187,0,43.018,0,40.646s1.452-3.541,2.726-4.6c1.2-.991,2.231-1.806,2.231-3.505S3.93,29.989,2.726,29.033C1.452,27.971,0,26.8,0,24.43s1.452-3.541,2.726-4.6c1.2-.991,2.231-1.806,2.231-3.505S3.93,13.773,2.726,12.817C1.452,11.684,0,10.48,0,8.108s1.452-3.541,2.726-4.6C3.93,2.549,4.957,1.7,4.957,0H6.373c0,2.372-1.452,3.541-2.726,4.6-1.2.991-2.231,1.806-2.231,3.505s1.027,2.549,2.231,3.505c1.275,1.062,2.726,2.231,2.726,4.6s-1.452,3.541-2.726,4.6c-1.2.991-2.231,1.841-2.231,3.541s1.027,2.549,2.231,3.505c1.275,1.062,2.726,2.231,2.726,4.6s-1.452,3.541-2.726,4.6c-1.2.991-2.231,1.806-2.231,3.505s1.027,2.549,2.231,3.505c1.275,1.062,2.726,2.231,2.726,4.6s-1.452,3.541-2.726,4.6C2.443,54.313,1.416,55.163,1.416,56.862Z" transform="translate(56.862) rotate(90)"/>
    </g>
    <g id="Squiggle:_Pink_long" data-name="Squiggle: Pink, long" transform="translate(1272.445 479.958)">
      <path id="Path_764" data-name="Path 764" d="M1.45,116.449H0c0-2.1,1.523-3.118,2.864-4.024,1.2-.8,2.212-1.486,2.212-2.828s-1.015-2.03-2.212-2.828C1.523,105.863,0,104.847,0,102.745s1.523-3.118,2.864-4.024c1.2-.8,2.212-1.486,2.212-2.828s-1.015-2.03-2.212-2.828C1.523,92.158,0,91.143,0,89.041s1.523-3.118,2.864-4.024c1.2-.8,2.212-1.486,2.212-2.828s-1.015-2.03-2.212-2.828C1.523,78.454,0,77.439,0,75.336s1.523-3.118,2.864-4.024c1.2-.8,2.212-1.486,2.212-2.828s-1.015-2.03-2.212-2.828C1.523,64.75,0,63.735,0,61.632s1.523-3.118,2.864-4.024c1.2-.8,2.212-1.486,2.212-2.828S4.06,52.75,2.864,51.952C1.523,51.046,0,50.031,0,47.928S1.523,44.81,2.864,43.9c1.2-.8,2.212-1.486,2.212-2.828s-1.015-2.03-2.212-2.828C1.523,37.378,0,36.327,0,34.26c0-2.1,1.523-3.118,2.864-4.024,1.2-.8,2.212-1.486,2.212-2.828S4.06,25.378,2.864,24.58C1.523,23.674,0,22.659,0,20.556s1.523-3.118,2.864-4.024c1.2-.8,2.212-1.486,2.212-2.828s-1.015-2.03-2.212-2.828C1.523,9.97,0,8.955,0,6.852S1.523,3.734,2.864,2.828C4.06,2.03,5.076,1.341,5.076,0h1.45C6.526,2.1,5,3.118,3.662,4.024c-1.2.8-2.212,1.486-2.212,2.828S2.465,8.882,3.662,9.68C5,10.586,6.526,11.6,6.526,13.7S5,16.822,3.662,17.728c-1.2.8-2.212,1.486-2.212,2.828s1.015,2.03,2.212,2.828C5,24.29,6.526,25.306,6.526,27.408S5,30.526,3.662,31.432c-1.2.8-2.212,1.486-2.212,2.828s1.015,2.03,2.212,2.828C5,37.995,6.526,39.01,6.526,41.112S5,44.23,3.662,45.137c-1.2.8-2.212,1.486-2.212,2.828s1.015,2.03,2.212,2.828C5,51.7,6.526,52.714,6.526,54.817S5,57.934,3.662,58.841c-1.2.761-2.212,1.486-2.212,2.792,0,1.341,1.015,2.03,2.212,2.828,1.341.906,2.864,1.921,2.864,4.024S5,71.6,3.662,72.509c-1.2.8-2.212,1.486-2.212,2.828s1.015,2.03,2.212,2.828c1.341.906,2.864,1.921,2.864,4.024S5,85.306,3.662,86.213c-1.2.8-2.212,1.486-2.212,2.828s1.015,2.03,2.212,2.828C5,92.775,6.526,93.79,6.526,95.893S5,99.011,3.662,99.917c-1.2.8-2.212,1.486-2.212,2.828s1.015,2.03,2.212,2.828c1.341.906,2.864,1.921,2.864,4.024S5,112.715,3.662,113.621C2.465,114.419,1.45,115.107,1.45,116.449Z"/>
    </g>
  </g>
</svg>
