<svg xmlns="http://www.w3.org/2000/svg" width="83.594" height="204.154" viewBox="0 0 83.594 204.154">
  <defs>
    <style>
      .cls-1 {
        fill: #d23431;
      }
    </style>
  </defs>
  <g id="dots" transform="translate(-30 -503.987)">
    <g id="dots-2" data-name="dots" transform="translate(30 612.782)">
      <ellipse id="Ellipse_297" data-name="Ellipse 297" class="cls-1" cx="2.406" cy="2.406" rx="2.406" ry="2.406" transform="translate(78.783 54.705)"/>
      <ellipse id="Ellipse_298" data-name="Ellipse 298" class="cls-1" cx="2.406" cy="2.406" rx="2.406" ry="2.406" transform="translate(78.783 72.626)"/>
      <ellipse id="Ellipse_299" data-name="Ellipse 299" class="cls-1" cx="2.406" cy="2.406" rx="2.406" ry="2.406" transform="translate(78.783 90.548)"/>
      <ellipse id="Ellipse_300" data-name="Ellipse 300" class="cls-1" cx="2.406" cy="2.406" rx="2.406" ry="2.406" transform="translate(63.026 54.705)"/>
      <ellipse id="Ellipse_301" data-name="Ellipse 301" class="cls-1" cx="2.406" cy="2.406" rx="2.406" ry="2.406" transform="translate(63.026 72.626)"/>
      <ellipse id="Ellipse_302" data-name="Ellipse 302" class="cls-1" cx="2.406" cy="2.406" rx="2.406" ry="2.406" transform="translate(63.026 90.548)"/>
      <ellipse id="Ellipse_303" data-name="Ellipse 303" class="cls-1" cx="2.406" cy="2.406" rx="2.406" ry="2.406" transform="translate(47.27 54.705)"/>
      <ellipse id="Ellipse_304" data-name="Ellipse 304" class="cls-1" cx="2.406" cy="2.406" rx="2.406" ry="2.406" transform="translate(47.27 72.626)"/>
      <ellipse id="Ellipse_305" data-name="Ellipse 305" class="cls-1" cx="2.406" cy="2.406" rx="2.406" ry="2.406" transform="translate(47.27 90.548)"/>
      <ellipse id="Ellipse_306" data-name="Ellipse 306" class="cls-1" cx="2.406" cy="2.406" rx="2.406" ry="2.406" transform="translate(31.513 54.705)"/>
      <ellipse id="Ellipse_307" data-name="Ellipse 307" class="cls-1" cx="2.406" cy="2.406" rx="2.406" ry="2.406" transform="translate(31.513 72.626)"/>
      <ellipse id="Ellipse_308" data-name="Ellipse 308" class="cls-1" cx="2.406" cy="2.406" rx="2.406" ry="2.406" transform="translate(31.513 90.548)"/>
      <ellipse id="Ellipse_309" data-name="Ellipse 309" class="cls-1" cx="2.406" cy="2.406" rx="2.406" ry="2.406" transform="translate(15.757 54.705)"/>
      <ellipse id="Ellipse_310" data-name="Ellipse 310" class="cls-1" cx="2.406" cy="2.406" rx="2.406" ry="2.406" transform="translate(15.757 72.626)"/>
      <ellipse id="Ellipse_311" data-name="Ellipse 311" class="cls-1" cx="2.406" cy="2.406" rx="2.406" ry="2.406" transform="translate(15.757 90.548)"/>
      <ellipse id="Ellipse_312" data-name="Ellipse 312" class="cls-1" cx="2.406" cy="2.406" rx="2.406" ry="2.406" transform="translate(0 54.705)"/>
      <ellipse id="Ellipse_313" data-name="Ellipse 313" class="cls-1" cx="2.406" cy="2.406" rx="2.406" ry="2.406" transform="translate(0 72.626)"/>
      <ellipse id="Ellipse_314" data-name="Ellipse 314" class="cls-1" cx="2.406" cy="2.406" rx="2.406" ry="2.406" transform="translate(0 90.548)"/>
      <ellipse id="Ellipse_297-2" data-name="Ellipse 297" class="cls-1" cx="2.406" cy="2.406" rx="2.406" ry="2.406" transform="translate(78.783 0)"/>
      <ellipse id="Ellipse_298-2" data-name="Ellipse 298" class="cls-1" cx="2.406" cy="2.406" rx="2.406" ry="2.406" transform="translate(78.783 17.922)"/>
      <ellipse id="Ellipse_299-2" data-name="Ellipse 299" class="cls-1" cx="2.406" cy="2.406" rx="2.406" ry="2.406" transform="translate(78.783 35.843)"/>
      <ellipse id="Ellipse_300-2" data-name="Ellipse 300" class="cls-1" cx="2.406" cy="2.406" rx="2.406" ry="2.406" transform="translate(63.026 0)"/>
      <ellipse id="Ellipse_301-2" data-name="Ellipse 301" class="cls-1" cx="2.406" cy="2.406" rx="2.406" ry="2.406" transform="translate(63.026 17.922)"/>
      <ellipse id="Ellipse_302-2" data-name="Ellipse 302" class="cls-1" cx="2.406" cy="2.406" rx="2.406" ry="2.406" transform="translate(63.026 35.843)"/>
      <ellipse id="Ellipse_303-2" data-name="Ellipse 303" class="cls-1" cx="2.406" cy="2.406" rx="2.406" ry="2.406" transform="translate(47.27 0)"/>
      <ellipse id="Ellipse_304-2" data-name="Ellipse 304" class="cls-1" cx="2.406" cy="2.406" rx="2.406" ry="2.406" transform="translate(47.27 17.922)"/>
      <ellipse id="Ellipse_305-2" data-name="Ellipse 305" class="cls-1" cx="2.406" cy="2.406" rx="2.406" ry="2.406" transform="translate(47.27 35.843)"/>
      <ellipse id="Ellipse_306-2" data-name="Ellipse 306" class="cls-1" cx="2.406" cy="2.406" rx="2.406" ry="2.406" transform="translate(31.513 0)"/>
      <ellipse id="Ellipse_307-2" data-name="Ellipse 307" class="cls-1" cx="2.406" cy="2.406" rx="2.406" ry="2.406" transform="translate(31.513 17.922)"/>
      <ellipse id="Ellipse_308-2" data-name="Ellipse 308" class="cls-1" cx="2.406" cy="2.406" rx="2.406" ry="2.406" transform="translate(31.513 35.843)"/>
      <ellipse id="Ellipse_309-2" data-name="Ellipse 309" class="cls-1" cx="2.406" cy="2.406" rx="2.406" ry="2.406" transform="translate(15.757 0)"/>
      <ellipse id="Ellipse_310-2" data-name="Ellipse 310" class="cls-1" cx="2.406" cy="2.406" rx="2.406" ry="2.406" transform="translate(15.757 17.922)"/>
      <ellipse id="Ellipse_311-2" data-name="Ellipse 311" class="cls-1" cx="2.406" cy="2.406" rx="2.406" ry="2.406" transform="translate(15.757 35.843)"/>
      <ellipse id="Ellipse_312-2" data-name="Ellipse 312" class="cls-1" cx="2.406" cy="2.406" rx="2.406" ry="2.406" transform="translate(0 0)"/>
      <ellipse id="Ellipse_313-2" data-name="Ellipse 313" class="cls-1" cx="2.406" cy="2.406" rx="2.406" ry="2.406" transform="translate(0 17.922)"/>
      <ellipse id="Ellipse_314-2" data-name="Ellipse 314" class="cls-1" cx="2.406" cy="2.406" rx="2.406" ry="2.406" transform="translate(0 35.843)"/>
    </g>
    <g id="dots-3" data-name="dots" transform="translate(30 503.987)">
      <ellipse id="Ellipse_297-3" data-name="Ellipse 297" class="cls-1" cx="2.406" cy="2.406" rx="2.406" ry="2.406" transform="translate(78.783 54.705)"/>
      <ellipse id="Ellipse_298-3" data-name="Ellipse 298" class="cls-1" cx="2.406" cy="2.406" rx="2.406" ry="2.406" transform="translate(78.783 72.626)"/>
      <ellipse id="Ellipse_299-3" data-name="Ellipse 299" class="cls-1" cx="2.406" cy="2.406" rx="2.406" ry="2.406" transform="translate(78.783 90.548)"/>
      <ellipse id="Ellipse_300-3" data-name="Ellipse 300" class="cls-1" cx="2.406" cy="2.406" rx="2.406" ry="2.406" transform="translate(63.026 54.705)"/>
      <ellipse id="Ellipse_301-3" data-name="Ellipse 301" class="cls-1" cx="2.406" cy="2.406" rx="2.406" ry="2.406" transform="translate(63.026 72.626)"/>
      <ellipse id="Ellipse_302-3" data-name="Ellipse 302" class="cls-1" cx="2.406" cy="2.406" rx="2.406" ry="2.406" transform="translate(63.026 90.548)"/>
      <ellipse id="Ellipse_303-3" data-name="Ellipse 303" class="cls-1" cx="2.406" cy="2.406" rx="2.406" ry="2.406" transform="translate(47.27 54.705)"/>
      <ellipse id="Ellipse_304-3" data-name="Ellipse 304" class="cls-1" cx="2.406" cy="2.406" rx="2.406" ry="2.406" transform="translate(47.27 72.626)"/>
      <ellipse id="Ellipse_305-3" data-name="Ellipse 305" class="cls-1" cx="2.406" cy="2.406" rx="2.406" ry="2.406" transform="translate(47.27 90.548)"/>
      <ellipse id="Ellipse_306-3" data-name="Ellipse 306" class="cls-1" cx="2.406" cy="2.406" rx="2.406" ry="2.406" transform="translate(31.513 54.705)"/>
      <ellipse id="Ellipse_307-3" data-name="Ellipse 307" class="cls-1" cx="2.406" cy="2.406" rx="2.406" ry="2.406" transform="translate(31.513 72.626)"/>
      <ellipse id="Ellipse_308-3" data-name="Ellipse 308" class="cls-1" cx="2.406" cy="2.406" rx="2.406" ry="2.406" transform="translate(31.513 90.548)"/>
      <ellipse id="Ellipse_309-3" data-name="Ellipse 309" class="cls-1" cx="2.406" cy="2.406" rx="2.406" ry="2.406" transform="translate(15.757 54.705)"/>
      <ellipse id="Ellipse_310-3" data-name="Ellipse 310" class="cls-1" cx="2.406" cy="2.406" rx="2.406" ry="2.406" transform="translate(15.757 72.626)"/>
      <ellipse id="Ellipse_311-3" data-name="Ellipse 311" class="cls-1" cx="2.406" cy="2.406" rx="2.406" ry="2.406" transform="translate(15.757 90.548)"/>
      <ellipse id="Ellipse_312-3" data-name="Ellipse 312" class="cls-1" cx="2.406" cy="2.406" rx="2.406" ry="2.406" transform="translate(0 54.705)"/>
      <ellipse id="Ellipse_313-3" data-name="Ellipse 313" class="cls-1" cx="2.406" cy="2.406" rx="2.406" ry="2.406" transform="translate(0 72.626)"/>
      <ellipse id="Ellipse_314-3" data-name="Ellipse 314" class="cls-1" cx="2.406" cy="2.406" rx="2.406" ry="2.406" transform="translate(0 90.548)"/>
      <ellipse id="Ellipse_297-4" data-name="Ellipse 297" class="cls-1" cx="2.406" cy="2.406" rx="2.406" ry="2.406" transform="translate(78.783)"/>
      <ellipse id="Ellipse_298-4" data-name="Ellipse 298" class="cls-1" cx="2.406" cy="2.406" rx="2.406" ry="2.406" transform="translate(78.783 17.922)"/>
      <ellipse id="Ellipse_299-4" data-name="Ellipse 299" class="cls-1" cx="2.406" cy="2.406" rx="2.406" ry="2.406" transform="translate(78.783 35.843)"/>
      <ellipse id="Ellipse_300-4" data-name="Ellipse 300" class="cls-1" cx="2.406" cy="2.406" rx="2.406" ry="2.406" transform="translate(63.026)"/>
      <ellipse id="Ellipse_301-4" data-name="Ellipse 301" class="cls-1" cx="2.406" cy="2.406" rx="2.406" ry="2.406" transform="translate(63.026 17.922)"/>
      <ellipse id="Ellipse_302-4" data-name="Ellipse 302" class="cls-1" cx="2.406" cy="2.406" rx="2.406" ry="2.406" transform="translate(63.026 35.843)"/>
      <ellipse id="Ellipse_303-4" data-name="Ellipse 303" class="cls-1" cx="2.406" cy="2.406" rx="2.406" ry="2.406" transform="translate(47.27)"/>
      <ellipse id="Ellipse_304-4" data-name="Ellipse 304" class="cls-1" cx="2.406" cy="2.406" rx="2.406" ry="2.406" transform="translate(47.27 17.922)"/>
      <ellipse id="Ellipse_305-4" data-name="Ellipse 305" class="cls-1" cx="2.406" cy="2.406" rx="2.406" ry="2.406" transform="translate(47.27 35.843)"/>
      <ellipse id="Ellipse_306-4" data-name="Ellipse 306" class="cls-1" cx="2.406" cy="2.406" rx="2.406" ry="2.406" transform="translate(31.513)"/>
      <ellipse id="Ellipse_307-4" data-name="Ellipse 307" class="cls-1" cx="2.406" cy="2.406" rx="2.406" ry="2.406" transform="translate(31.513 17.922)"/>
      <ellipse id="Ellipse_308-4" data-name="Ellipse 308" class="cls-1" cx="2.406" cy="2.406" rx="2.406" ry="2.406" transform="translate(31.513 35.843)"/>
      <ellipse id="Ellipse_309-4" data-name="Ellipse 309" class="cls-1" cx="2.406" cy="2.406" rx="2.406" ry="2.406" transform="translate(15.757)"/>
      <ellipse id="Ellipse_310-4" data-name="Ellipse 310" class="cls-1" cx="2.406" cy="2.406" rx="2.406" ry="2.406" transform="translate(15.757 17.922)"/>
      <ellipse id="Ellipse_311-4" data-name="Ellipse 311" class="cls-1" cx="2.406" cy="2.406" rx="2.406" ry="2.406" transform="translate(15.757 35.843)"/>
      <ellipse id="Ellipse_312-4" data-name="Ellipse 312" class="cls-1" cx="2.406" cy="2.406" rx="2.406" ry="2.406"/>
      <ellipse id="Ellipse_313-4" data-name="Ellipse 313" class="cls-1" cx="2.406" cy="2.406" rx="2.406" ry="2.406" transform="translate(0 17.922)"/>
      <ellipse id="Ellipse_314-4" data-name="Ellipse 314" class="cls-1" cx="2.406" cy="2.406" rx="2.406" ry="2.406" transform="translate(0 35.843)"/>
    </g>
  </g>
</svg>
