<svg xmlns="http://www.w3.org/2000/svg" xmlns:xlink="http://www.w3.org/1999/xlink" width="56.063" height="448" viewBox="0 0 56.063 448">
  <defs>
    <style>
      .cls-1 {
        fill: url(#linear-gradient);
      }
    </style>
    <linearGradient id="linear-gradient" x1="0.5" y1="26.751" x2="0.5" y2="230.12" gradientUnits="objectBoundingBox">
      <stop offset="0" stop-color="#a80c90"/>
      <stop offset="1" stop-color="#d528a6"/>
    </linearGradient>
  </defs>
  <g id="Lines:_Yellow_horizontal_thin" data-name="Lines: Yellow, horizontal, thin" transform="translate(56.063 448) rotate(180)">
    <rect id="Rectangle_1634" data-name="Rectangle 1634" class="cls-1" width="56.063" height="1.904" transform="translate(56.063 448) rotate(180)"/>
    <rect id="Rectangle_1635" data-name="Rectangle 1635" class="cls-1" width="56.063" height="1.904" transform="translate(56.063 439.6) rotate(180)"/>
    <rect id="Rectangle_1636" data-name="Rectangle 1636" class="cls-1" width="56.063" height="1.904" transform="translate(56.063 431.2) rotate(180)"/>
    <rect id="Rectangle_1637" data-name="Rectangle 1637" class="cls-1" width="56.063" height="1.904" transform="translate(56.063 422.8) rotate(180)"/>
    <rect id="Rectangle_1638" data-name="Rectangle 1638" class="cls-1" width="56.063" height="1.904" transform="translate(56.063 414.4) rotate(180)"/>
    <rect id="Rectangle_1639" data-name="Rectangle 1639" class="cls-1" width="56.063" height="1.904" transform="translate(56.063 405.888) rotate(180)"/>
    <rect id="Rectangle_1640" data-name="Rectangle 1640" class="cls-1" width="56.063" height="1.904" transform="translate(56.063 397.488) rotate(180)"/>
    <rect id="Rectangle_1641" data-name="Rectangle 1641" class="cls-1" width="56.063" height="1.904" transform="translate(56.063 389.088) rotate(180)"/>
    <rect id="Rectangle_1642" data-name="Rectangle 1642" class="cls-1" width="56.063" height="1.904" transform="translate(56.063 380.688) rotate(180)"/>
    <rect id="Rectangle_1643" data-name="Rectangle 1643" class="cls-1" width="56.063" height="1.904" transform="translate(56.063 372.288) rotate(180)"/>
    <rect id="Rectangle_1644" data-name="Rectangle 1644" class="cls-1" width="56.063" height="1.904" transform="translate(56.063 363.888) rotate(180)"/>
    <rect id="Rectangle_1645" data-name="Rectangle 1645" class="cls-1" width="56.063" height="1.904" transform="translate(56.063 355.488) rotate(180)"/>
    <rect id="Rectangle_1646" data-name="Rectangle 1646" class="cls-1" width="56.063" height="1.904" transform="translate(56.063 347.088) rotate(180)"/>
    <rect id="Rectangle_1647" data-name="Rectangle 1647" class="cls-1" width="56.063" height="1.904" transform="translate(56.063 338.688) rotate(180)"/>
    <rect id="Rectangle_1648" data-name="Rectangle 1648" class="cls-1" width="56.063" height="1.904" transform="translate(56.063 330.288) rotate(180)"/>
    <rect id="Rectangle_1649" data-name="Rectangle 1649" class="cls-1" width="56.063" height="1.904" transform="translate(56.063 321.776) rotate(180)"/>
    <rect id="Rectangle_1650" data-name="Rectangle 1650" class="cls-1" width="56.063" height="1.904" transform="translate(56.063 313.376) rotate(180)"/>
    <rect id="Rectangle_1651" data-name="Rectangle 1651" class="cls-1" width="56.063" height="1.904" transform="translate(56.063 304.976) rotate(180)"/>
    <rect id="Rectangle_1652" data-name="Rectangle 1652" class="cls-1" width="56.063" height="1.904" transform="translate(56.063 296.576) rotate(180)"/>
    <rect id="Rectangle_1653" data-name="Rectangle 1653" class="cls-1" width="56.063" height="1.904" transform="translate(56.063 288.176) rotate(180)"/>
    <rect id="Rectangle_1654" data-name="Rectangle 1654" class="cls-1" width="56.063" height="1.904" transform="translate(56.063 279.776) rotate(180)"/>
    <rect id="Rectangle_1655" data-name="Rectangle 1655" class="cls-1" width="56.063" height="1.904" transform="translate(56.063 271.376) rotate(180)"/>
    <rect id="Rectangle_1656" data-name="Rectangle 1656" class="cls-1" width="56.063" height="1.904" transform="translate(56.063 262.976) rotate(180)"/>
    <rect id="Rectangle_1657" data-name="Rectangle 1657" class="cls-1" width="56.063" height="1.904" transform="translate(56.063 254.576) rotate(180)"/>
    <rect id="Rectangle_1658" data-name="Rectangle 1658" class="cls-1" width="56.063" height="1.904" transform="translate(56.063 246.064) rotate(180)"/>
    <rect id="Rectangle_1659" data-name="Rectangle 1659" class="cls-1" width="56.063" height="1.904" transform="translate(56.063 237.664) rotate(180)"/>
    <rect id="Rectangle_1660" data-name="Rectangle 1660" class="cls-1" width="56.063" height="1.904" transform="translate(56.063 229.264) rotate(180)"/>
    <rect id="Rectangle_1661" data-name="Rectangle 1661" class="cls-1" width="56.063" height="1.904" transform="translate(56.063 220.864) rotate(180)"/>
    <rect id="Rectangle_1662" data-name="Rectangle 1662" class="cls-1" width="56.063" height="1.904" transform="translate(56.063 212.464) rotate(180)"/>
    <rect id="Rectangle_1663" data-name="Rectangle 1663" class="cls-1" width="56.063" height="1.904" transform="translate(56.063 204.064) rotate(180)"/>
    <rect id="Rectangle_1664" data-name="Rectangle 1664" class="cls-1" width="56.063" height="1.904" transform="translate(56.063 195.664) rotate(180)"/>
    <rect id="Rectangle_1665" data-name="Rectangle 1665" class="cls-1" width="56.063" height="1.904" transform="translate(56.063 187.264) rotate(180)"/>
    <rect id="Rectangle_1666" data-name="Rectangle 1666" class="cls-1" width="56.063" height="1.904" transform="translate(56.063 178.864) rotate(180)"/>
    <rect id="Rectangle_1667" data-name="Rectangle 1667" class="cls-1" width="56.063" height="1.904" transform="translate(56.063 170.464) rotate(180)"/>
    <rect id="Rectangle_1668" data-name="Rectangle 1668" class="cls-1" width="56.063" height="1.904" transform="translate(56.063 161.952) rotate(180)"/>
    <rect id="Rectangle_1669" data-name="Rectangle 1669" class="cls-1" width="56.063" height="1.904" transform="translate(56.063 153.552) rotate(180)"/>
    <rect id="Rectangle_1670" data-name="Rectangle 1670" class="cls-1" width="56.063" height="1.904" transform="translate(56.063 145.152) rotate(180)"/>
    <rect id="Rectangle_1671" data-name="Rectangle 1671" class="cls-1" width="56.063" height="1.904" transform="translate(56.063 136.752) rotate(180)"/>
    <rect id="Rectangle_1672" data-name="Rectangle 1672" class="cls-1" width="56.063" height="1.904" transform="translate(56.063 128.352) rotate(180)"/>
    <rect id="Rectangle_1673" data-name="Rectangle 1673" class="cls-1" width="56.063" height="1.904" transform="translate(56.063 119.952) rotate(180)"/>
    <rect id="Rectangle_1674" data-name="Rectangle 1674" class="cls-1" width="56.063" height="1.904" transform="translate(56.063 111.552) rotate(180)"/>
    <rect id="Rectangle_1675" data-name="Rectangle 1675" class="cls-1" width="56.063" height="1.904" transform="translate(56.063 103.152) rotate(180)"/>
    <rect id="Rectangle_1676" data-name="Rectangle 1676" class="cls-1" width="56.063" height="1.904" transform="translate(56.063 94.752) rotate(180)"/>
    <rect id="Rectangle_1677" data-name="Rectangle 1677" class="cls-1" width="56.063" height="1.904" transform="translate(56.063 86.24) rotate(180)"/>
    <rect id="Rectangle_1678" data-name="Rectangle 1678" class="cls-1" width="56.063" height="1.904" transform="translate(56.063 77.84) rotate(180)"/>
    <rect id="Rectangle_1679" data-name="Rectangle 1679" class="cls-1" width="56.063" height="1.904" transform="translate(56.063 69.44) rotate(180)"/>
    <rect id="Rectangle_1680" data-name="Rectangle 1680" class="cls-1" width="56.063" height="1.904" transform="translate(56.063 61.04) rotate(180)"/>
    <rect id="Rectangle_1681" data-name="Rectangle 1681" class="cls-1" width="56.063" height="1.904" transform="translate(56.063 52.64) rotate(180)"/>
    <rect id="Rectangle_1682" data-name="Rectangle 1682" class="cls-1" width="56.063" height="1.904" transform="translate(56.063 44.24) rotate(180)"/>
    <rect id="Rectangle_1683" data-name="Rectangle 1683" class="cls-1" width="56.063" height="1.904" transform="translate(56.063 35.84) rotate(180)"/>
    <rect id="Rectangle_1684" data-name="Rectangle 1684" class="cls-1" width="56.063" height="1.904" transform="translate(56.063 27.44) rotate(180)"/>
    <rect id="Rectangle_1685" data-name="Rectangle 1685" class="cls-1" width="56.063" height="1.904" transform="translate(56.063 19.04) rotate(180)"/>
    <rect id="Rectangle_1686" data-name="Rectangle 1686" class="cls-1" width="56.063" height="1.904" transform="translate(56.063 10.64) rotate(180)"/>
    <rect id="Rectangle_1687" data-name="Rectangle 1687" class="cls-1" width="56.063" height="1.904" transform="translate(56.063 1.904) rotate(180)"/>
  </g>
</svg>
